<svg xmlns="http://www.w3.org/2000/svg" viewBox="0 0 800 560" role="img" aria-labelledby="title desc">
  <title id="title">Labirinto da Memória</title><desc id="desc">Quadros de memória conectados por trilhas luminosas.</desc>
  <defs><linearGradient id="bg" x2="1" y2="1"><stop stop-color="#101927"/><stop offset="1" stop-color="#241d3d"/></linearGradient><filter id="glow"><feGaussianBlur stdDeviation="10" result="b"/><feMerge><feMergeNode in="b"/><feMergeNode in="SourceGraphic"/></feMerge></filter></defs>
  <rect width="800" height="560" fill="url(#bg)"/><circle cx="656" cy="72" r="180" fill="#7d63dd" opacity=".12"/><circle cx="105" cy="476" r="190" fill="#45c6a1" opacity=".09"/>
  <g fill="none" stroke="#5b657d" stroke-width="5" opacity=".55"><path d="M152 120h496v320H152z"/><path d="M152 227h496M152 334h496M318 120v320M482 120v320"/></g>
  <g filter="url(#glow)"><rect x="166" y="136" width="138" height="76" rx="14" fill="#173a3a" stroke="#8ff5d0" stroke-width="4"/><rect x="332" y="243" width="136" height="76" rx="14" fill="#443719" stroke="#ffd36a" stroke-width="4"/><rect x="496" y="350" width="138" height="75" rx="14" fill="#44213a" stroke="#ff7898" stroke-width="4"/></g>
  <g font-family="ui-monospace,monospace" font-weight="800" text-anchor="middle"><text x="235" y="183" fill="#8ff5d0" font-size="28">PÁG 7</text><text x="400" y="290" fill="#ffd36a" font-size="28">PÁG 2</text><text x="565" y="396" fill="#ff7898" font-size="28">FALTA</text></g>
  <g fill="#8ff5d0"><circle cx="318" cy="174" r="7"/><circle cx="400" cy="227" r="7"/></g><g fill="#ffd36a"><circle cx="482" cy="281" r="7"/><circle cx="565" cy="334" r="7"/></g>
</svg>
